<svg xmlns="http://www.w3.org/2000/svg" xmlns:xlink="http://www.w3.org/1999/xlink" width="162" height="99"><defs><filter id="a" width="107.7%" height="112.9%" x="-3.9%" y="-3.2%" filterUnits="objectBoundingBox"><feOffset dy="3" in="SourceAlpha" result="shadowOffsetOuter1"/><feGaussianBlur in="shadowOffsetOuter1" result="shadowBlurOuter1" stdDeviation="1.5"/><feColorMatrix in="shadowBlurOuter1" values="0 0 0 0 0 0 0 0 0 0 0 0 0 0 0 0 0 0 0.196705638 0"/></filter><path id="b" d="M39.28 56a.463.463 0 00.34-.14.463.463 0 00.14-.34V44.6c0-.133.067-.2.2-.2h2.52c.08 0 .147.053.2.16l4.04 11.04c.08.267.267.4.56.4h4.88c.293 0 .44-.12.44-.36a.445.445 0 00-.04-.2L48 43.96c-.053-.133-.013-.227.12-.28 1.36-.613 2.413-1.547 3.16-2.8.747-1.253 1.12-2.733 1.12-4.44 0-1.653-.333-3.12-1-4.4a7.203 7.203 0 00-2.84-2.98c-1.227-.707-2.627-1.06-4.2-1.06H34.6a.463.463 0 00-.34.14.463.463 0 00-.14.34v27.04c0 .133.047.247.14.34.093.093.207.14.34.14h4.68zm4.16-15.92h-3.48c-.133 0-.2-.067-.2-.2v-6.84c0-.133.067-.2.2-.2h3.48c.987 0 1.787.327 2.4.98s.92 1.54.92 2.66c0 1.093-.307 1.967-.92 2.62s-1.413.98-2.4.98zm21.2 16.28c1.84 0 3.467-.373 4.88-1.12 1.413-.747 2.507-1.8 3.28-3.16.773-1.36 1.16-2.947 1.16-4.76V36.68c0-1.787-.387-3.36-1.16-4.72-.773-1.36-1.867-2.413-3.28-3.16-1.413-.747-3.04-1.12-4.88-1.12-1.84 0-3.46.373-4.86 1.12a8.003 8.003 0 00-3.26 3.16c-.773 1.36-1.16 2.933-1.16 4.72v10.64c0 1.813.387 3.4 1.16 4.76a8.003 8.003 0 003.26 3.16c1.4.747 3.02 1.12 4.86 1.12zm0-4.84c-1.093 0-1.973-.367-2.64-1.1-.667-.733-1-1.687-1-2.86V36.52c0-1.2.333-2.167 1-2.9.667-.733 1.547-1.1 2.64-1.1 1.12 0 2.013.367 2.68 1.1.667.733 1 1.7 1 2.9v11.04c0 1.173-.333 2.127-1 2.86-.667.733-1.56 1.1-2.68 1.1zm21.76 4.8c1.813 0 3.413-.353 4.8-1.06 1.387-.707 2.46-1.713 3.22-3.02.76-1.307 1.14-2.813 1.14-4.52v-.12a.463.463 0 00-.14-.34.463.463 0 00-.34-.14l-4.68-.2c-.32 0-.48.147-.48.44v.52c0 1.093-.32 1.967-.96 2.62-.64.653-1.493.98-2.56.98s-1.92-.327-2.56-.98c-.64-.653-.96-1.527-.96-2.62V36.16c0-1.093.32-1.973.96-2.66.64-.687 1.507-1.04 2.6-1.04 1.067 0 1.913.333 2.54 1 .627.667.94 1.56.94 2.68v.36c0 .173.133.26.4.26h4.72c.133 0 .247-.047.34-.14a.463.463 0 00.14-.34v-.32c0-1.68-.38-3.16-1.14-4.44-.76-1.28-1.833-2.267-3.22-2.96-1.387-.693-2.987-1.04-4.8-1.04-1.813 0-3.413.347-4.8 1.04-1.387.693-2.453 1.687-3.2 2.98-.747 1.293-1.12 2.787-1.12 4.48v10.52c0 1.733.373 3.233 1.12 4.5.747 1.267 1.813 2.247 3.2 2.94 1.387.693 2.987 1.04 4.8 1.04zm14.82-1.4a.463.463 0 00.34-.14.463.463 0 00.14-.34V29.2c0-.133.067-.2.2-.2h4.72c.133 0 .2.067.2.2v25.66c0 .133.047.247.14.34.093.093.207.14.34.14h4.3c.133 0 .247-.047.34-.14a.463.463 0 00.14-.34V29.2c0-.133.067-.2.2-.2h4.68c.133 0 .2.067.2.2v25.66c0 .133.047.247.14.34.093.093.207.14.34.14h4.3c.133 0 .247-.047.34-.14a.463.463 0 00.14-.34V29.2c0-.133.067-.2.2-.2h4.72c.133 0 .2.067.2.2v15.84c0 1.667-.38 3.14-1.14 4.42-.76 1.28-1.83 2.267-3.2 2.96-1.37.693-2.97 1.04-4.8 1.04-1.83 0-3.43-.347-4.8-1.04-1.37-.693-2.44-1.68-3.2-2.96-.76-1.28-1.14-2.753-1.14-4.42V33.04a.463.463 0 00-.14-.34.463.463 0 00-.34-.14h-4.64c-.133 0-.2.067-.2.2v21.52c0 .133.047.247.14.34.093.093.207.14.34.14h4.6zm42.42 1.4c1.813 0 3.413-.353 4.8-1.06 1.387-.707 2.46-1.713 3.22-3.02.76-1.307 1.14-2.813 1.14-4.52v-.12a.463.463 0 00-.14-.34.463.463 0 00-.34-.14l-4.68-.2c-.32 0-.48.147-.48.44v.52c0 1.093-.32 1.967-.96 2.62-.64.653-1.493.98-2.56.98s-1.92-.327-2.56-.98c-.64-.653-.96-1.527-.96-2.62V36.16c0-1.093.32-1.973.96-2.66.64-.687 1.507-1.04 2.6-1.04 1.067 0 1.913.333 2.54 1 .627.667.94 1.56.94 2.68v.36c0 .173.133.26.4.26h4.72c.133 0 .247-.047.34-.14a.463.463 0 00.14-.34v-.32c0-1.68-.38-3.16-1.14-4.44-.76-1.28-1.833-2.267-3.22-2.96-1.387-.693-2.987-1.04-4.8-1.04-1.813 0-3.413.347-4.8 1.04-1.387.693-2.453 1.687-3.2 2.98-.747 1.293-1.12 2.787-1.12 4.48v10.52c0 1.733.373 3.233 1.12 4.5.747 1.267 1.813 2.247 3.2 2.94 1.387.693 2.987 1.04 4.8 1.04zm21.68 0c2.32 0 4.387-.36 6.2-1.08 1.813-.72 3.223-1.76 4.22-3.12.997-1.36 1.496-2.973 1.496-4.84 0-1.787-.413-3.353-1.24-4.7-.827-1.347-1.987-2.4-3.48-3.16-1.494-.76-3.26-1.14-5.3-1.14h-3.28c-.133 0-.2-.067-.2-.2v-7.76c0-.133.067-.2.2-.2h12.12c.133 0 .247-.047.34-.14a.463.463 0 00.14-.34v-3.8c0-.133-.047-.247-.14-.34a.463.463 0 00-.34-.14h-17.06c-.133 0-.2.067-.2.2v27.04c0 .133.047.247.14.34.093.093.207.14.34.14h7.1zm.2-12.28h2.92c1.733 0 3.08.313 4.04.94.96.627 1.44 1.613 1.44 2.96 0 1.333-.48 2.327-1.44 2.98-.96.653-2.307.98-4.04.98h-2.92c-.133 0-.2-.067-.2-.2v-5.4c0-.133.067-.2.2-.2z"/><path id="c" d="M0 50c0 13.807 11.267 25 25.16 25 2.88 0 5.653-.467 8.213-1.327C38.2 78 44.473 80 51.36 80c8.24 0 15.653-2.707 21.56-7.2C80.053 79.093 88.64 82.2 98 82.2c23.293 0 42.16-19 42.16-42.4C140.16 16.6 121.293-2.4 98-2.4c-9.36 0-17.947 3.107-25.08 8.4C66.413 1.907 59 0 50.76 0 43.867 0 37.6 2 32.387 5.327 29.827 4.467 27.053 4 24.16 4 11.267 4 0 15.193 0 29z"/></defs><g fill="none" fill-rule="evenodd" transform="translate(11 9)"><use fill="#000" filter="url(#a)" xlink:href="#b"/><use fill="#FFF" xlink:href="#b"/><g transform="translate(10 9)"><use fill="#000" filter="url(#a)" xlink:href="#c"/><use fill="#FFF" xlink:href="#c"/></g></g></svg>
